<svg id="visual" viewBox="0 0 900 600" width="900" height="600" xmlns="http://www.w3.org/2000/svg" xmlns:xlink="http://www.w3.org/1999/xlink" version="1.1"><rect x="0" y="0" width="900" height="600" fill="#ffffff"></rect><defs><linearGradient id="grad1_0" x1="33.3%" y1="0%" x2="100%" y2="100%"><stop offset="20%" stop-color="#bddfff" stop-opacity="1"></stop><stop offset="80%" stop-color="#bddfff" stop-opacity="1"></stop></linearGradient></defs><defs><linearGradient id="grad1_1" x1="33.3%" y1="0%" x2="100%" y2="100%"><stop offset="20%" stop-color="#bddfff" stop-opacity="1"></stop><stop offset="80%" stop-color="#d4eaff" stop-opacity="1"></stop></linearGradient></defs><defs><linearGradient id="grad1_2" x1="33.3%" y1="0%" x2="100%" y2="100%"><stop offset="20%" stop-color="#eaf4ff" stop-opacity="1"></stop><stop offset="80%" stop-color="#d4eaff" stop-opacity="1"></stop></linearGradient></defs><defs><linearGradient id="grad1_3" x1="33.3%" y1="0%" x2="100%" y2="100%"><stop offset="20%" stop-color="#eaf4ff" stop-opacity="1"></stop><stop offset="80%" stop-color="#ffffff" stop-opacity="1"></stop></linearGradient></defs><defs><linearGradient id="grad2_0" x1="0%" y1="0%" x2="66.7%" y2="100%"><stop offset="20%" stop-color="#bddfff" stop-opacity="1"></stop><stop offset="80%" stop-color="#bddfff" stop-opacity="1"></stop></linearGradient></defs><defs><linearGradient id="grad2_1" x1="0%" y1="0%" x2="66.7%" y2="100%"><stop offset="20%" stop-color="#d4eaff" stop-opacity="1"></stop><stop offset="80%" stop-color="#bddfff" stop-opacity="1"></stop></linearGradient></defs><defs><linearGradient id="grad2_2" x1="0%" y1="0%" x2="66.7%" y2="100%"><stop offset="20%" stop-color="#d4eaff" stop-opacity="1"></stop><stop offset="80%" stop-color="#eaf4ff" stop-opacity="1"></stop></linearGradient></defs><defs><linearGradient id="grad2_3" x1="0%" y1="0%" x2="66.7%" y2="100%"><stop offset="20%" stop-color="#ffffff" stop-opacity="1"></stop><stop offset="80%" stop-color="#eaf4ff" stop-opacity="1"></stop></linearGradient></defs><g transform="translate(900, 0)"><path d="M0 324.5C-48.9 303 -97.9 281.6 -148.5 257.2C-199.1 232.9 -251.4 205.6 -281 162.2C-310.6 118.9 -317.6 59.4 -324.5 0L0 0Z" fill="#f4faff"></path><path d="M0 243.4C-36.7 227.3 -73.4 211.2 -111.4 192.9C-149.3 174.6 -188.6 154.2 -210.8 121.7C-233 89.2 -238.2 44.6 -243.4 0L0 0Z" fill="#dfefff"></path><path d="M0 162.2C-24.5 151.5 -48.9 140.8 -74.2 128.6C-99.6 116.4 -125.7 102.8 -140.5 81.1C-155.3 59.4 -158.8 29.7 -162.2 0L0 0Z" fill="#c9e4ff"></path><path d="M0 81.1C-12.2 75.8 -24.5 70.4 -37.1 64.3C-49.8 58.2 -62.9 51.4 -70.3 40.6C-77.7 29.7 -79.4 14.9 -81.1 0L0 0Z" fill="#bddfff"></path></g><g transform="translate(0, 600)"><path d="M0 -324.5C30.3 -270.7 60.5 -216.9 113.5 -196.6C166.5 -176.3 242.1 -189.4 281 -162.2C320 -135.1 322.2 -67.5 324.5 0L0 0Z" fill="#f4faff"></path><path d="M0 -243.4C22.7 -203 45.4 -162.7 85.1 -147.4C124.8 -132.2 181.6 -142.1 210.8 -121.7C240 -101.3 241.7 -50.6 243.4 0L0 0Z" fill="#dfefff"></path><path d="M0 -162.2C15.1 -135.4 30.3 -108.5 56.7 -98.3C83.2 -88.1 121 -94.7 140.5 -81.1C160 -67.5 161.1 -33.8 162.2 0L0 0Z" fill="#c9e4ff"></path><path d="M0 -81.1C7.6 -67.7 15.1 -54.2 28.4 -49.1C41.6 -44.1 60.5 -47.4 70.3 -40.6C80 -33.8 80.6 -16.9 81.1 0L0 0Z" fill="#bddfff"></path></g></svg>